Coordinates
version=1
nRows=13
nColumns=38
inDegrees=yes

Units are S.I. units (second, meters, Newtons, ...)
Angles are in degrees.

endheader
time	pelvis_tilt	pelvis_list	pelvis_rotation	pelvis_tx	pelvis_ty	pelvis_tz	hip_flexion_r	hip_adduction_r	hip_rotation_r	knee_angle_r	ankle_angle_r	subtalar_angle_r	mtp_angle_r	hip_flexion_l	hip_adduction_l	hip_rotation_l	knee_angle_l	ankle_angle_l	subtalar_angle_l	mtp_angle_l	lumbar_extension	lumbar_bending	lumbar_rotation	arm_flex_r	arm_add_r	arm_rot_r	elbow_flex_r	pro_sup_r	wrist_flex_r	wrist_dev_r	arm_flex_l	arm_add_l	arm_rot_l	elbow_flex_l	pro_sup_l	wrist_flex_l	wrist_dev_l
      2.77000000	     -2.09373481	      2.14305564	     -0.78058004	      0.29622505	      0.92009821	     -0.15259875	     29.12334230	     -1.07887806	     -1.36475497	    -50.19286802	     -3.41512605	    -11.64369215	     15.44052151	      3.45519355	      7.43981360	      5.60802228	    -17.78571885	     10.56168485	      0.47790339	      2.17308841	     -4.46432260	     -1.98432040	     -7.99352378	     -7.22873903	    -16.78594688	      6.21302974	     19.13197750	     86.51662706	      0.00000000	      0.00000000	      0.81505159	    -18.94067765	     14.56157103	     29.96269220	     86.51662706	      0.00000000	      0.00000000
      2.78000000	     -1.99772609	      2.09489117	     -0.46763150	      0.30826144	      0.91969889	     -0.15235357	     29.34272324	     -1.23165395	     -1.75760286	    -46.86697268	     -3.01278403	    -11.77140103	     14.95587281	      2.12000747	      7.30111894	      5.75714569	    -17.06805478	     10.97124731	      0.89348661	      2.19393725	     -4.63131203	     -1.90907803	     -8.44857957	     -7.45176765	    -16.69058624	      5.89215464	     18.70309648	     86.51662706	      0.00000000	      0.00000000	      1.15254777	    -19.15797397	     14.09988116	     31.17412415	     86.51662706	      0.00000000	      0.00000000
      2.79000000	     -1.88728617	      2.08050686	     -0.15320886	      0.32038953	      0.91909205	     -0.15210058	     29.43241029	     -1.41364976	     -2.18058993	    -43.34187031	     -2.60772715	    -11.68810999	     14.47559787	      0.78208494	      7.18654179	      5.89908666	    -16.37890384	     11.36276840	      1.32412151	      2.24858495	     -4.81372439	     -1.87222455	     -8.88791115	     -7.66568743	    -16.58324307	      5.60794218	     18.26927722	     86.51662706	      0.00000000	      0.00000000	      1.48940360	    -19.35857072	     13.64638711	     32.33607077	     86.51662706	      0.00000000	      0.00000000
      2.80000000	     -1.76447307	      2.09104153	      0.16304634	      0.33261574	      0.91830412	     -0.15182404	     29.40222131	     -1.61463247	     -2.64150359	    -39.65532354	     -2.18487923	    -11.29066948	     14.01104138	     -0.55090617	      7.09003697	      6.04343824	    -15.73318885	     11.72625219	      1.74921314	      2.34244991	     -5.00747892	     -1.86450793	     -9.31064022	     -7.86972288	    -16.46602568	      5.37648304	     17.82788240	     86.51662706	      0.00000000	      0.00000000	      1.82431941	    -19.53956013	     13.20938716	     33.44177214	     86.51662706	      0.00000000	      0.00000000
      2.81000000	     -1.63042185	      2.11480369	      0.48049549	      0.34493504	      0.91738742	     -0.15150046	     29.26400232	     -1.81997574	     -3.14668456	    -35.85825668	     -1.73950842	    -10.50105784	     13.56926432	     -1.87276932	      7.00036124	      6.19707310	    -15.14425970	     12.05488549	      2.15230026	      2.47875471	     -5.20897256	     -1.87408506	     -9.71377752	     -8.06240477	    -16.34169109	      5.21416237	     17.37709780	     86.51662706	      0.00000000	      0.00000000	      2.15388761	    -19.70006410	     12.79468688	     34.48817966	     86.51662706	      0.00000000	      0.00000000
      2.82000000	     -1.48531532	      2.13954701	      0.79596140	      0.35734894	      0.91638806	     -0.15111424	     29.03203852	     -2.01072428	     -3.70123082	    -32.01575937	     -1.27591534	     -9.28182259	     13.15228143	     -3.17921816	      6.90258901	      6.36391001	    -14.62184417	     12.34464742	      2.52138056	      2.65807382	     -5.41542852	     -1.88748552	    -10.09206712	     -8.24131956	    -16.21369754	      5.13679354	     16.91653839	     86.51662706	      0.00000000	      0.00000000	      2.47280540	    -19.84057082	     12.40439439	     35.47614492	     86.51662706	      0.00000000	      0.00000000
      2.83000000	     -1.32827445	      2.15402015	      1.10292759	      0.36986781	      0.91532740	     -0.15066508	     28.72388066	     -2.16520748	     -4.30882667	    -28.20655190	     -0.80395917	     -7.64698517	     12.75750560	     -4.46782695	      6.78111359	      6.54480457	    -14.17120269	     12.59307612	      2.84863269	      2.87832680	     -5.62495856	     -1.89101729	    -10.43878978	     -8.40305163	    -16.08618097	      5.15833849	     16.44785726	     86.51662706	      0.00000000	      0.00000000	      2.77414801	    -19.96210275	     12.03617400	     36.41005397	     86.51662706	      0.00000000	      0.00000000
      2.84000000	     -1.15775351	      2.14842044	      1.39229916	      0.38250047	      0.91421382	     -0.15015257	     28.36069009	     -2.26246626	     -4.97005685	    -24.52132719	     -0.33463449	     -5.66577681	     12.37932204	     -5.73779828	      6.62346325	      6.73767221	    -13.79415071	     12.79783987	      3.12993254	      3.13538794	     -5.83654133	     -1.87253784	    -10.74736566	     -8.54342888	    -15.96375943	      5.28936806	     15.97522071	     86.51662706	      0.00000000	      0.00000000	      3.04949290	    -20.06562704	     11.68316590	     37.29690179	     86.51662706	      0.00000000	      0.00000000
      2.85000000	     -0.97204654	      2.11534901	      1.65446533	      0.39525426	      0.91306210	     -0.14956034	     27.96629848	     -2.28631688	     -5.67919640	    -21.05998045	      0.12385585	     -3.45789349	     12.01140988	     -6.98913888	      6.42345200	      6.93790809	    -13.49175739	     12.95567392	      3.36461460	      3.42438339	     -6.04997957	     -1.82325960	    -11.01347713	     -8.65813492	    -15.85115373	      5.53549300	     15.50550916	     86.51662706	      0.00000000	      0.00000000	      3.28897571	    -20.15177051	     11.33464584	     38.14489934	     86.51662706	      0.00000000	      0.00000000
      2.86000000	     -0.76932897	      2.05186571	      1.88172340	      0.40814213	      0.91189213	     -0.14886696	     27.56485170	     -2.22877749	     -6.42066375	    -17.92731882	      0.56827093	     -1.18072257	     11.64919921	     -8.22108693	      6.18247072	      7.13895479	    -13.26762276	     13.06198426	      3.55580577	      3.74161145	     -6.26560595	     -1.73918378	    -11.23717924	     -8.74368430	    -15.75273543	      5.89604484	     15.04813673	     86.51662706	      0.00000000	      0.00000000	      3.48141956	    -20.22075898	     10.97737699	     38.96177177	     86.51662706	      0.00000000	      0.00000000
      2.87000000	     -0.54784207	      1.96074892	      2.07016236	      0.42118082	      0.91072000	     -0.14807211	     27.17751700	     -2.09249528	     -7.16686795	    -15.22684917	      0.99987994	      0.98934875	     11.29175550	     -9.43064246	      5.90882088	      7.33266130	    -13.13026915	     13.11116703	      3.71134380	      4.08689340	     -6.48330653	     -1.62166546	    -11.42427131	     -8.79870027	    -15.67216061	      6.36328477	     14.61445846	     86.51662706	      0.00000000	      0.00000000	      3.61460124	    -20.27253018	     10.59749856	     39.75293765	     86.51662706	      0.00000000	      0.00000000
      2.88000000	     -0.30668612	      1.84933286	      2.22063015	      0.43438329	      0.90955777	     -0.14719403	     26.81952150	     -1.89166607	     -7.87900006	    -13.05221060	      1.42101996	      2.87845638	     10.94248911	    -10.61203661	      5.61549085	      7.50925967	    -13.09350277	     13.09744192	      3.84490375	      4.46603080	     -6.70065692	     -1.47674852	    -11.58626138	     -8.82537852	    -15.61226171	      6.92235950	     14.21681483	     86.51662706	      0.00000000	      0.00000000	      3.67565718	    -20.30697214	     10.18269424	     40.51977580	     86.51662706	      0.00000000	      0.00000000
      2.89000000	     -0.04679622	      1.72698031	      2.33884450	      0.44776262	      0.90841712	     -0.14624518	     26.49869518	     -1.64974236	     -8.51144407	    -11.47606586	      1.82897514	      4.33639375	     10.60841927	    -11.75679413	      5.31682982	      7.65712814	    -13.17442761	     13.01577428	      3.97666600	      4.89292809	     -6.91055068	     -1.31343256	    -11.73859141	     -8.83075425	    -15.57521894	      7.55208884	     13.86732066	     86.51662706	      0.00000000	      0.00000000	      3.65172299	    -20.32414817	      9.72430443	     41.25820308	     86.51662706	      0.00000000	      0.00000000
